<?xml version="1.0" standalone="no"?>
<!DOCTYPE svg PUBLIC "-//W3C//DTD SVG 20010904//EN"
 "http://www.w3.org/TR/2001/REC-SVG-20010904/DTD/svg10.dtd">
<svg version="1.0" xmlns="http://www.w3.org/2000/svg"
 width="512.000000pt" height="512.000000pt" viewBox="0 0 512.000000 512.000000"
 preserveAspectRatio="xMidYMid meet">
<metadata>
Created by potrace 1.16, written by Peter Selinger 2001-2019
</metadata>
<g transform="translate(0.000000,512.000000) scale(0.100000,-0.100000)"
fill="#000000" stroke="none">
<path d="M3700 4192 c-131 -44 -220 -104 -355 -241 l-90 -91 355 -355 355
-356 121 123 c107 109 126 134 168 218 76 155 83 263 25 378 -53 107 -195 249
-304 305 -78 39 -190 47 -275 19z m472 -499 c10 -9 18 -24 18 -33 0 -9 -52
-67 -115 -129 -111 -110 -115 -113 -137 -99 -48 32 -37 56 80 171 60 59 115
107 122 107 7 0 22 -7 32 -17z"/>
<path d="M2330 2935 c-470 -470 -851 -857 -848 -860 3 -3 57 -26 119 -50 l114
-44 822 822 823 822 -82 82 c-46 46 -85 83 -88 83 -3 0 -390 -385 -860 -855z"/>
<path d="M2603 2728 l-823 -823 16 -99 c8 -55 16 -101 17 -102 1 -1 48 -8 105
-15 l103 -13 822 822 822 822 -115 115 c-63 63 -117 115 -120 115 -3 0 -375
-370 -827 -822z"/>
<path d="M2906 2431 l-819 -819 37 -99 c21 -54 42 -109 48 -122 8 -24 58 24
868 834 l860 860 -82 82 c-46 46 -85 83 -88 83 -3 0 -374 -369 -824 -819z"/>
<path d="M1371 1958 c-11 -24 -90 -236 -176 -473 -149 -407 -156 -432 -146
-467 15 -48 53 -78 100 -78 37 0 893 306 938 335 l21 14 -53 142 c-30 77 -55
143 -58 145 -2 2 -63 12 -136 23 -73 11 -134 21 -135 23 -2 2 -11 63 -22 136
l-19 134 -125 48 c-185 70 -167 68 -189 18z"/>
</g>
</svg>
