<?xml version="1.0" standalone="no"?>
<!DOCTYPE svg PUBLIC "-//W3C//DTD SVG 20010904//EN"
 "http://www.w3.org/TR/2001/REC-SVG-20010904/DTD/svg10.dtd">
<svg version="1.0" xmlns="http://www.w3.org/2000/svg"
 width="512.000000pt" height="512.000000pt" viewBox="0 0 512.000000 512.000000"
 preserveAspectRatio="xMidYMid meet">
<metadata>
Created by potrace 1.16, written by Peter Selinger 2001-2019
</metadata>
<g transform="translate(0.000000,512.000000) scale(0.100000,-0.100000)"
fill="#000000" stroke="none">
<path d="M2516 4837 c-38 -17 -2479 -2095 -2500 -2129 -58 -95 40 -212 138
-165 18 8 567 470 1220 1026 l1187 1011 302 -258 c166 -142 561 -478 877 -747
316 -269 715 -608 885 -754 171 -145 325 -270 343 -278 101 -42 194 70 136
165 -9 15 -230 209 -490 431 l-474 403 0 555 c0 505 -2 556 -17 580 -32 49
-59 53 -365 53 -304 0 -314 -2 -352 -53 -19 -26 -21 -45 -26 -257 l-5 -228
-371 317 c-204 174 -383 322 -398 329 -33 15 -53 15 -90 -1z m1394 -718 l0
-380 -150 126 -150 127 0 254 0 254 150 0 150 0 0 -381z"/>
<path d="M2540 4212 c-14 -2 -41 -16 -61 -31 -55 -41 -1941 -1655 -1968 -1684
-44 -48 -29 -136 29 -170 59 -35 101 -21 205 71 l50 45 5 -1045 c5 -989 6
-1045 23 -1072 39 -59 -62 -56 1737 -56 1773 0 1689 -2 1735 50 20 22 20 40
25 1072 l5 1051 50 -45 c85 -75 106 -88 142 -88 100 0 157 112 95 185 -9 12
-451 391 -982 844 -531 453 -974 832 -986 843 -25 22 -70 35 -104 30z m794
-924 l755 -643 1 -1072 0 -1073 -430 0 -430 0 -1 653 c0 478 -3 661 -12 686
-7 19 -25 44 -40 55 -28 21 -35 21 -617 21 -582 0 -589 0 -617 -21 -15 -11
-33 -36 -40 -55 -9 -25 -12 -208 -12 -686 l-1 -653 -430 0 -430 0 0 1073 1
1072 762 648 c419 356 767 645 773 643 7 -2 352 -294 768 -648z m-334 -2198
l0 -590 -440 0 -440 0 0 590 0 590 440 0 440 0 0 -590z"/>
</g>
</svg>
