<?xml version="1.0" standalone="no"?>
<!DOCTYPE svg PUBLIC "-//W3C//DTD SVG 20010904//EN"
 "http://www.w3.org/TR/2001/REC-SVG-20010904/DTD/svg10.dtd">
<svg version="1.0" xmlns="http://www.w3.org/2000/svg"
 width="512.000000pt" height="512.000000pt" viewBox="0 0 512.000000 512.000000"
 preserveAspectRatio="xMidYMid meet">
<metadata>
Created by potrace 1.16, written by Peter Selinger 2001-2019
</metadata>
<g transform="translate(0.000000,512.000000) scale(0.100000,-0.100000)"
fill="#000000" stroke="none">
<path d="M455 5104 c-42 -21 -422 -402 -440 -440 -18 -37 -20 -126 -4 -157 6
-12 444 -455 973 -984 l961 -963 -961 -963 c-529 -529 -967 -972 -973 -984
-14 -28 -14 -113 0 -150 13 -36 403 -428 445 -448 37 -17 110 -20 151 -5 16 6
447 430 991 973 l962 962 963 -962 c543 -543 974 -967 990 -973 41 -15 114
-12 151 5 42 20 432 412 445 448 14 37 14 122 0 150 -6 12 -444 455 -973 984
l-961 963 961 963 c529 529 967 972 973 984 16 31 14 120 -4 157 -20 42 -412
432 -448 445 -36 14 -108 14 -144 1 -16 -6 -447 -430 -990 -973 l-963 -962
-962 962 c-544 543 -975 967 -991 973 -41 15 -117 12 -152 -6z"/>
</g>
</svg>
