<?xml version="1.0" standalone="no"?>
<!DOCTYPE svg PUBLIC "-//W3C//DTD SVG 20010904//EN"
 "http://www.w3.org/TR/2001/REC-SVG-20010904/DTD/svg10.dtd">
<svg version="1.0" xmlns="http://www.w3.org/2000/svg"
 width="512.000000pt" height="512.000000pt" viewBox="0 0 512.000000 512.000000"
 preserveAspectRatio="xMidYMid meet">
<metadata>
Created by potrace 1.16, written by Peter Selinger 2001-2019
</metadata>
<g transform="translate(0.000000,512.000000) scale(0.100000,-0.100000)"
fill="#000000" stroke="none">
<path d="M860 5100 c-41 -11 -113 -39 -160 -62 -69 -34 -103 -60 -180 -138
-78 -77 -104 -111 -138 -180 -23 -47 -51 -121 -62 -165 -20 -79 -20 -113 -18
-2277 l3 -2196 25 -27 c14 -15 37 -33 52 -41 32 -17 101 -18 131 -3 12 6 72
60 132 120 l110 109 105 -106 c118 -118 141 -134 200 -134 58 0 83 16 195 129
l99 101 106 -105 c109 -107 137 -125 195 -125 59 0 87 19 198 128 l107 107
108 -107 c110 -110 138 -128 199 -128 58 0 92 24 227 159 l128 129 80 -54
c161 -110 356 -189 538 -219 122 -19 338 -19 460 0 554 90 1015 551 1105 1105
20 123 19 340 -1 461 -81 486 -434 896 -904 1053 -58 19 -136 40 -175 46 -130
20 -115 -2 -115 175 l0 155 560 0 561 0 42 39 42 40 3 692 c2 659 1 697 -17
770 -68 268 -279 481 -546 549 -77 20 -108 20 -1699 19 -1567 0 -1623 -1
-1696 -19z m2574 -307 c-68 -104 -110 -219 -124 -343 -6 -49 -10 -442 -10
-921 l0 -835 -77 -12 c-42 -7 -124 -28 -182 -48 -469 -157 -821 -563 -906
-1049 -21 -118 -21 -352 0 -470 32 -179 106 -362 212 -523 46 -70 53 -86 42
-96 -8 -7 -40 -37 -72 -66 l-57 -53 -108 105 c-173 171 -211 171 -384 1 l-107
-106 -48 41 c-26 22 -75 68 -108 102 -67 69 -91 82 -152 82 -58 0 -75 -11
-190 -125 l-103 -101 -112 111 c-86 84 -123 114 -155 123 -55 17 -106 6 -148
-32 l-35 -30 2 1968 3 1969 32 68 c64 135 202 238 345 256 34 5 602 9 1262 10
l1198 1 -18 -27z m783 -6 c127 -47 227 -152 272 -285 20 -59 21 -81 21 -627
l0 -565 -450 0 -450 0 0 528 c0 309 4 554 10 592 44 277 336 452 597 357z
m-632 -2401 c163 -13 364 -93 511 -204 184 -139 309 -323 381 -557 25 -84 27
-102 27 -275 0 -173 -2 -191 -27 -275 -93 -306 -286 -534 -562 -666 -335 -160
-725 -129 -1036 82 -82 55 -213 186 -268 268 -209 307 -241 700 -87 1027 60
125 115 205 210 300 176 175 404 283 644 303 48 4 98 6 112 5 14 -2 57 -5 95
-8z"/>
<path d="M1891 4342 c-75 -38 -90 -87 -91 -289 l0 -143 -169 0 c-158 0 -170
-1 -202 -23 -90 -60 -90 -194 0 -254 32 -22 44 -23 201 -23 l168 0 3 -167 c4
-146 7 -172 24 -202 29 -49 67 -73 122 -78 59 -5 108 18 140 66 22 32 23 44
23 207 l0 174 174 0 c163 0 175 1 207 23 90 60 90 194 0 254 -32 22 -44 23
-207 23 l-174 0 0 174 c0 163 -1 175 -23 207 -27 41 -79 69 -127 69 -19 0 -50
-8 -69 -18z"/>
<path d="M976 2841 c-95 -63 -92 -207 6 -266 32 -19 51 -20 683 -20 l650 0 36
22 c53 33 73 77 67 147 -4 50 -10 62 -42 94 l-36 37 -668 3 c-643 2 -668 1
-696 -17z"/>
<path d="M976 2241 c-96 -63 -93 -207 6 -266 31 -19 51 -20 378 -20 327 0 347
1 378 20 101 61 99 221 -2 269 -29 14 -83 16 -383 16 -326 0 -350 -1 -377 -19z"/>
<path d="M1023 1661 c-75 -19 -116 -73 -117 -151 0 -54 26 -104 70 -131 29
-18 53 -19 379 -19 298 0 352 2 381 16 101 48 103 208 2 269 -31 19 -52 20
-358 22 -179 1 -340 -2 -357 -6z"/>
<path d="M3384 2091 c-41 -25 -63 -57 -70 -102 -5 -29 -14 -39 -50 -59 -57
-30 -110 -88 -143 -159 -22 -48 -26 -70 -26 -146 0 -106 19 -157 86 -230 51
-56 91 -80 229 -139 156 -68 187 -111 124 -176 -21 -22 -33 -25 -92 -25 -52 0
-79 6 -122 27 -72 35 -98 40 -145 27 -55 -16 -102 -68 -111 -124 -14 -95 51
-166 194 -212 38 -12 52 -22 52 -35 0 -52 65 -121 124 -132 82 -16 169 43 182
122 5 33 13 42 52 62 177 94 257 320 176 498 -51 115 -119 171 -304 252 -136
59 -148 69 -132 104 19 42 71 45 143 7 125 -65 240 -22 256 97 11 82 -44 158
-142 199 -34 14 -45 24 -49 46 -8 39 -42 84 -76 102 -41 21 -118 19 -156 -4z"/>
</g>
</svg>
