<?xml version="1.0" standalone="no"?>
<!DOCTYPE svg PUBLIC "-//W3C//DTD SVG 20010904//EN"
 "http://www.w3.org/TR/2001/REC-SVG-20010904/DTD/svg10.dtd">
<svg version="1.0" xmlns="http://www.w3.org/2000/svg"
 width="1621.000000pt" height="1629.000000pt" viewBox="0 0 1621.000000 1629.000000"
 preserveAspectRatio="xMidYMid meet">
<metadata>
Created by potrace 1.16, written by Peter Selinger 2001-2019
</metadata>
<g transform="translate(0.000000,1629.000000) scale(0.100000,-0.100000)"
fill="#000000" stroke="none">
<path d="M1604 15528 c-30 -57 -39 -183 -38 -508 1 -298 9 -421 33 -475 5 -11
13 -33 17 -50 4 -16 8 -32 9 -35 7 -22 18 -47 24 -60 5 -9 12 -31 16 -50 4
-19 11 -41 16 -50 4 -8 15 -32 24 -52 38 -94 49 -118 87 -192 53 -104 109
-196 168 -274 71 -95 227 -251 334 -337 20 -16 43 -35 49 -40 7 -6 32 -26 57
-45 25 -19 47 -38 48 -42 2 -5 8 -8 13 -8 5 0 42 -24 82 -53 90 -67 201 -137
216 -137 6 0 11 -4 11 -9 0 -5 13 -12 30 -16 16 -4 32 -11 35 -16 4 -5 15 -9
25 -9 25 0 80 -48 80 -69 0 -10 -35 -56 -77 -103 -90 -98 -175 -202 -224 -273
-19 -27 -36 -52 -39 -55 -3 -3 -27 -39 -55 -80 -27 -41 -55 -81 -62 -90 -7 -8
-42 -60 -77 -115 -36 -55 -68 -105 -73 -111 -9 -12 -8 -10 -109 -174 -43 -69
-81 -126 -86 -128 -4 -2 -8 -8 -8 -14 0 -5 -31 -61 -70 -124 -38 -63 -70 -119
-70 -124 0 -6 -4 -10 -10 -10 -5 0 -10 -6 -10 -14 0 -8 -6 -21 -13 -28 -7 -7
-18 -24 -24 -38 -7 -14 -25 -47 -41 -75 -91 -158 -122 -215 -122 -224 0 -5 -3
-11 -7 -13 -14 -6 -183 -355 -183 -377 0 -6 -4 -11 -10 -11 -5 0 -10 -5 -10
-11 0 -12 -23 -68 -46 -111 -8 -14 -14 -33 -14 -42 0 -9 -4 -16 -10 -16 -5 0
-10 -7 -10 -16 0 -9 -7 -31 -15 -50 -8 -19 -22 -49 -30 -68 -8 -19 -15 -41
-15 -49 0 -9 -4 -18 -9 -22 -5 -3 -13 -20 -17 -37 -3 -18 -10 -39 -15 -48 -4
-8 -22 -58 -39 -110 -17 -52 -35 -104 -40 -115 -5 -11 -18 -54 -30 -95 -27
-93 -36 -122 -55 -183 -8 -26 -15 -56 -15 -67 0 -10 -4 -21 -9 -25 -5 -3 -13
-30 -16 -60 -4 -31 -11 -58 -16 -61 -5 -3 -9 -18 -9 -33 0 -15 -3 -31 -7 -34
-3 -4 -8 -17 -9 -30 -9 -63 -17 -103 -24 -107 -3 -3 -12 -39 -18 -80 -6 -41
-18 -115 -27 -165 -24 -134 -32 -197 -44 -335 -7 -69 -17 -168 -23 -220 -14
-109 -17 -1225 -4 -1275 5 -16 12 -66 17 -110 4 -44 11 -98 14 -120 4 -22 10
-67 15 -100 5 -33 16 -103 24 -155 9 -52 20 -126 26 -165 6 -38 15 -79 20 -90
5 -11 11 -38 15 -60 3 -22 8 -49 10 -60 3 -11 8 -36 11 -55 4 -19 10 -39 14
-45 4 -5 11 -30 14 -55 4 -25 11 -54 16 -65 5 -11 12 -38 16 -60 8 -43 8 -43
17 -65 5 -15 20 -69 21 -82 1 -3 4 -10 8 -14 5 -4 8 -20 8 -35 0 -15 4 -30 9
-34 6 -3 13 -26 17 -50 3 -25 10 -45 14 -45 4 0 10 -18 14 -40 3 -23 11 -50
16 -60 6 -11 14 -28 19 -39 5 -10 13 -35 16 -55 4 -20 11 -39 16 -42 5 -3 9
-13 9 -22 0 -9 6 -28 13 -42 7 -14 22 -53 33 -87 10 -35 22 -63 27 -63 4 0 7
-7 7 -16 0 -9 6 -30 14 -47 7 -18 24 -57 36 -87 13 -30 34 -80 47 -110 13 -30
28 -64 33 -75 5 -11 22 -50 39 -86 17 -37 31 -72 31 -78 0 -6 5 -11 10 -11 6
0 10 -6 10 -13 0 -11 70 -153 124 -252 9 -16 16 -36 16 -42 0 -7 4 -13 9 -13
5 0 14 -12 20 -27 11 -31 49 -99 117 -211 24 -40 44 -77 44 -82 0 -6 4 -10 10
-10 5 0 12 -11 16 -25 3 -14 10 -25 14 -25 4 0 10 -8 14 -17 6 -21 25 -51 44
-71 6 -7 12 -19 12 -27 0 -7 3 -15 8 -17 4 -1 34 -43 67 -93 60 -90 132 -193
161 -230 9 -11 28 -38 42 -60 15 -22 31 -45 37 -52 5 -6 21 -26 35 -44 14 -18
40 -51 58 -73 17 -23 36 -45 40 -51 13 -18 97 -120 102 -125 3 -3 18 -21 34
-40 77 -95 167 -191 336 -360 199 -198 315 -305 460 -420 24 -19 58 -47 75
-61 16 -14 84 -65 150 -112 66 -48 125 -91 132 -97 7 -5 16 -10 22 -10 5 0 11
-3 13 -7 3 -8 95 -73 102 -73 1 0 41 -25 87 -55 46 -30 90 -55 96 -55 7 0 13
-4 13 -9 0 -5 11 -12 25 -15 14 -4 25 -11 25 -16 0 -6 4 -10 9 -10 4 0 51 -25
104 -55 52 -30 100 -55 105 -55 6 0 12 -4 14 -8 2 -6 480 -246 543 -272 19 -8
51 -22 180 -79 51 -23 104 -46 140 -61 11 -4 36 -15 57 -24 20 -9 43 -16 51
-16 9 0 18 -4 21 -8 3 -5 32 -17 65 -28 34 -10 61 -22 61 -26 0 -3 18 -9 40
-13 22 -4 42 -10 45 -15 3 -4 21 -11 41 -15 35 -6 45 -10 89 -32 12 -6 36 -14
55 -18 19 -4 40 -11 45 -15 6 -4 26 -11 45 -15 19 -4 41 -11 50 -15 8 -5 42
-16 75 -25 33 -9 67 -20 75 -24 9 -5 36 -12 60 -16 24 -4 51 -11 60 -15 8 -5
44 -16 80 -25 36 -9 79 -20 95 -25 17 -5 50 -12 75 -15 24 -4 51 -11 60 -15 8
-5 53 -16 100 -25 47 -9 108 -21 135 -26 131 -26 365 -53 585 -69 80 -6 172
-13 205 -17 82 -8 758 -8 820 1 28 3 100 11 160 16 175 16 297 34 535 79 41 8
100 21 250 55 30 7 62 15 70 18 24 8 112 30 145 36 17 2 35 8 40 12 6 4 30 11
55 15 25 4 50 11 55 15 6 4 29 11 52 15 24 4 45 11 49 16 3 5 16 9 29 9 13 0
26 4 29 9 3 5 27 12 53 16 27 4 50 10 53 14 5 7 76 29 122 38 16 3 28 9 28 13
0 5 18 11 40 15 22 4 42 10 45 15 3 4 22 11 42 15 21 4 43 10 48 14 6 4 35 15
65 25 30 10 64 22 75 26 97 42 173 70 187 70 10 0 18 4 18 9 0 5 13 12 30 16
16 3 46 15 67 25 89 42 133 60 147 60 9 0 16 5 16 10 0 6 7 10 16 10 9 0 28 7
42 15 49 27 263 125 272 125 6 0 10 4 10 9 0 5 12 12 27 16 15 3 30 10 33 13
3 4 48 29 100 55 128 64 194 100 198 110 2 4 8 7 12 7 5 0 50 25 100 55 50 30
95 55 100 55 6 0 10 4 10 9 0 5 10 13 23 17 12 4 24 9 27 13 10 13 101 71 110
71 6 0 10 4 10 9 0 5 8 12 18 15 10 4 27 14 38 24 16 14 80 64 159 124 71 54
236 192 296 248 8 8 54 49 100 90 139 124 520 499 589 580 12 14 31 36 42 50
12 14 35 41 52 60 17 20 42 50 56 69 14 18 30 38 37 45 11 13 245 334 271 372
7 10 28 42 46 69 19 28 58 88 87 135 29 47 55 87 58 90 3 3 11 14 18 25 6 11
39 63 72 116 34 54 61 102 61 108 0 6 5 11 10 11 6 0 10 5 10 10 0 6 27 56 59
113 110 191 301 562 301 585 0 9 22 60 41 94 5 10 9 23 9 29 0 6 13 40 30 76
16 35 30 71 30 78 0 8 5 17 10 20 6 3 10 13 10 22 0 8 6 29 14 46 7 18 21 55
31 82 9 28 20 59 25 70 5 11 12 36 16 55 3 19 10 41 15 50 13 26 69 211 69
231 0 10 4 20 9 23 4 3 11 29 15 58 4 28 10 57 14 62 4 6 12 36 19 66 6 30 16
73 21 95 76 311 140 719 162 1040 6 77 15 190 21 250 15 145 5 780 -15 1025
-26 305 -31 351 -71 585 -8 44 -16 94 -19 110 -9 52 -34 178 -46 230 -7 28
-12 60 -11 73 0 12 -3 22 -8 22 -5 0 -11 15 -14 33 -3 17 -12 59 -21 92 -8 33
-20 80 -26 105 -5 25 -14 54 -19 65 -9 21 -17 46 -51 165 -12 41 -25 84 -30
95 -5 11 -16 45 -26 75 -10 30 -21 60 -25 65 -4 6 -10 26 -14 45 -4 19 -10 40
-14 45 -4 6 -20 44 -36 85 -15 41 -36 94 -46 117 -11 23 -19 47 -19 53 0 5 -4
18 -9 28 -13 22 -64 137 -82 181 -12 29 -253 514 -307 616 -9 17 -31 53 -49
82 -18 29 -33 55 -33 58 0 13 -338 555 -367 590 -5 6 -31 44 -58 85 -28 41
-52 77 -55 80 -3 3 -46 61 -95 130 -49 69 -92 127 -95 130 -3 3 -57 75 -120
160 -62 85 -118 158 -124 162 -14 10 -14 10 104 71 124 64 203 108 210 116 6
7 40 29 60 38 8 4 20 12 27 17 14 12 21 18 83 66 91 71 262 234 315 300 17 21
70 89 98 125 4 6 21 28 37 50 16 22 33 45 38 50 4 6 11 17 15 25 4 8 16 29 27
45 11 17 23 37 27 45 3 8 9 17 12 20 18 15 137 272 166 355 9 28 19 57 22 65
8 19 8 19 17 60 4 19 11 44 16 55 8 19 16 54 41 195 5 30 12 66 14 80 17 86
27 355 17 465 -13 151 -26 205 -60 242 -22 25 -32 29 -54 22 -15 -4 -34 -13
-42 -21 -34 -30 -53 -44 -157 -119 -86 -61 -297 -199 -399 -259 -120 -72 -151
-90 -155 -90 -3 0 -34 -18 -70 -40 -36 -22 -67 -40 -69 -40 -3 0 -35 -14 -73
-31 -37 -17 -82 -37 -100 -45 -17 -8 -38 -14 -47 -14 -9 0 -16 -4 -16 -8 0 -4
-28 -15 -62 -25 -35 -10 -70 -22 -78 -26 -9 -5 -31 -12 -50 -16 -19 -4 -39
-11 -45 -15 -5 -4 -21 -10 -35 -13 -14 -3 -50 -13 -80 -22 -30 -8 -118 -32
-195 -51 -77 -19 -156 -39 -175 -44 -19 -5 -71 -16 -115 -25 -44 -9 -111 -23
-150 -31 -38 -8 -90 -19 -115 -24 -25 -5 -65 -12 -90 -15 -25 -3 -63 -10 -85
-15 -22 -5 -85 -16 -140 -25 -55 -9 -120 -20 -145 -25 -25 -6 -81 -14 -125
-20 -44 -6 -127 -17 -185 -25 -58 -8 -143 -19 -190 -24 -47 -5 -96 -12 -110
-15 -14 -3 -61 -11 -105 -16 -44 -6 -125 -16 -180 -24 -91 -12 -104 -11 -140
4 -22 10 -76 32 -120 50 -44 19 -84 37 -89 42 -6 4 -17 8 -25 8 -9 0 -27 6
-41 13 -14 7 -52 21 -85 31 -33 10 -71 21 -85 26 -14 5 -52 16 -85 26 -33 9
-79 23 -103 30 -23 8 -51 14 -62 14 -10 0 -21 4 -24 9 -3 4 -27 11 -53 15 -26
3 -61 10 -78 15 -28 9 -95 26 -195 51 -25 6 -67 15 -95 20 -27 5 -86 16 -130
25 -186 37 -283 51 -550 81 -195 22 -894 31 -1075 14 -69 -6 -183 -15 -255
-21 -213 -16 -413 -40 -605 -73 -47 -8 -114 -19 -150 -25 -36 -6 -87 -15 -115
-20 -27 -5 -88 -17 -135 -26 -47 -9 -98 -20 -115 -25 -16 -5 -57 -12 -90 -16
-33 -4 -64 -10 -70 -14 -5 -4 -32 -11 -60 -15 -57 -10 -52 -9 -85 -18 -14 -4
-41 -12 -60 -17 -79 -21 -186 -52 -205 -59 -68 -28 -156 -79 -214 -125 l-66
-53 -55 8 c-30 4 -104 15 -165 24 -60 9 -141 20 -180 25 -38 5 -81 12 -95 16
-33 8 -113 22 -235 39 -55 8 -140 21 -190 30 -49 9 -117 20 -150 25 -33 5 -98
16 -145 25 -47 9 -114 20 -150 25 -36 5 -81 14 -100 19 -19 6 -53 12 -75 15
-22 3 -76 12 -120 21 -44 9 -116 22 -160 30 -216 38 -470 102 -580 145 -11 4
-42 16 -70 25 -154 54 -353 138 -522 221 -319 156 -494 269 -733 473 -52 44
-98 81 -102 81 -4 0 -15 -14 -24 -32z m891 -1209 c5 -5 18 -9 28 -9 10 0 34
-7 53 -15 19 -8 49 -22 68 -30 19 -8 41 -15 49 -15 9 0 17 -3 19 -7 4 -9 115
-51 176 -66 23 -6 42 -14 42 -19 0 -4 9 -8 21 -8 12 0 35 -6 52 -13 18 -8 59
-22 92 -32 70 -21 142 -44 170 -55 11 -4 49 -15 85 -25 36 -9 75 -21 87 -26
12 -4 45 -11 73 -15 27 -4 50 -10 50 -15 0 -5 15 -9 33 -9 17 0 48 -5 67 -11
44 -13 130 -30 375 -75 97 -17 149 -25 290 -43 50 -7 104 -16 120 -21 17 -5
65 -12 108 -15 42 -4 80 -11 83 -16 3 -5 19 -9 36 -9 32 0 182 -26 233 -40 17
-5 57 -12 90 -16 33 -3 65 -9 70 -13 9 -5 88 -22 185 -38 19 -3 40 -9 45 -13
6 -4 36 -11 67 -14 32 -4 60 -11 63 -16 2 -4 29 -11 60 -15 30 -3 57 -11 60
-16 4 -5 17 -9 30 -9 13 0 65 -13 115 -30 50 -16 100 -30 110 -30 10 0 21 -4
24 -9 3 -5 18 -11 33 -14 35 -7 172 -54 195 -67 10 -6 23 -10 29 -10 6 0 40
-13 76 -30 35 -16 68 -30 73 -30 15 0 334 -162 367 -186 17 -13 34 -24 38 -24
10 0 198 -126 230 -154 17 -15 51 -43 77 -64 73 -58 358 -350 413 -422 27 -36
55 -71 62 -78 7 -7 13 -17 13 -21 0 -4 8 -16 18 -27 9 -11 22 -29 29 -40 6
-10 45 -73 86 -139 40 -66 96 -167 124 -225 45 -91 63 -132 103 -225 4 -11 15
-36 24 -57 9 -20 16 -43 16 -51 0 -9 4 -18 9 -21 5 -4 12 -24 16 -46 4 -22 10
-42 15 -45 4 -3 11 -22 15 -42 4 -21 10 -42 14 -48 5 -5 16 -32 27 -60 25 -69
61 -125 81 -125 20 0 53 28 53 46 0 7 4 14 8 16 5 2 23 35 41 73 18 39 36 78
42 87 5 10 9 23 9 29 0 6 7 27 16 47 9 21 22 52 30 70 8 18 14 39 14 47 0 8 5
15 10 15 6 0 10 7 10 16 0 16 7 32 62 150 15 34 28 67 28 73 0 6 5 11 10 11 6
0 10 6 10 13 0 11 19 51 76 157 11 19 21 37 24 40 3 3 21 30 40 60 19 30 37
57 40 60 3 3 23 31 44 63 76 113 250 320 362 431 70 69 227 206 252 220 9 5
19 12 22 16 11 14 119 89 206 143 129 78 465 247 494 247 5 0 23 8 42 17 59
29 68 33 79 33 6 0 25 6 42 14 18 8 57 22 87 31 30 10 62 21 70 25 9 4 31 11
50 15 19 4 41 11 50 15 8 5 44 16 80 25 36 9 72 21 81 25 9 5 38 12 65 15 27
4 54 11 59 15 6 4 26 10 45 13 19 3 46 9 60 13 14 3 39 8 55 11 17 3 35 9 40
13 6 5 37 11 70 15 33 4 65 11 70 15 6 5 40 11 78 15 37 4 70 11 73 16 3 5 20
9 37 9 18 1 59 7 92 15 33 8 76 15 96 15 20 0 39 3 43 8 4 4 49 12 99 19 90
12 246 35 357 54 30 5 94 14 142 21 47 7 90 16 94 21 4 4 19 7 33 7 26 0 150
24 206 40 17 5 56 12 88 16 31 3 60 10 62 14 3 5 30 12 60 15 31 4 58 11 61
16 3 5 18 9 34 9 16 0 31 4 34 9 4 5 29 12 56 16 27 4 52 11 56 16 3 5 13 9
23 9 17 0 194 52 236 69 11 5 61 24 110 42 50 18 94 36 99 41 6 4 16 8 24 8 7
0 34 10 60 21 67 31 178 69 201 69 11 0 23 5 26 10 6 10 45 14 45 5 0 -13
-148 -227 -169 -245 -3 -3 -24 -27 -46 -55 -131 -165 -250 -249 -520 -365 -64
-28 -95 -40 -140 -55 -27 -9 -59 -21 -70 -26 -24 -10 -71 -23 -180 -50 -44
-11 -96 -24 -115 -29 -104 -29 -319 -70 -361 -70 -16 0 -49 -4 -72 -10 -23 -5
-96 -14 -162 -20 -174 -15 -290 -28 -370 -40 -38 -6 -115 -18 -170 -26 -55 -9
-108 -20 -117 -25 -10 -5 -25 -9 -33 -9 -24 0 -324 -102 -410 -140 -22 -10
-51 -21 -65 -24 -14 -4 -34 -11 -45 -16 -11 -5 -38 -16 -60 -25 -22 -10 -53
-23 -70 -30 -16 -7 -41 -18 -55 -23 -23 -10 -90 -39 -180 -79 -201 -89 -443
-210 -534 -266 -75 -47 -225 -152 -236 -167 -3 -3 -14 -13 -26 -21 -90 -61
-364 -348 -408 -428 -5 -9 -12 -18 -15 -21 -23 -20 -132 -199 -187 -310 -29
-57 -43 -89 -83 -185 -5 -11 -16 -42 -26 -70 -9 -27 -20 -59 -25 -70 -5 -11
-14 -42 -20 -70 -6 -27 -18 -79 -26 -115 -8 -36 -20 -96 -26 -135 -15 -87 -15
-502 -1 -570 31 -149 37 -171 43 -180 4 -5 11 -26 15 -45 4 -19 11 -41 15 -50
5 -8 18 -40 30 -70 64 -159 181 -393 258 -515 104 -167 344 -438 489 -553 23
-19 52 -42 65 -53 13 -10 28 -22 33 -27 6 -4 25 -17 43 -27 17 -11 32 -23 32
-27 0 -4 4 -8 9 -8 5 0 40 -20 78 -45 37 -25 73 -45 80 -45 6 0 13 -3 15 -7 4
-10 131 -73 146 -73 7 0 12 -4 12 -9 0 -5 10 -11 23 -14 12 -3 53 -17 91 -31
38 -14 77 -26 88 -26 10 0 26 -4 36 -10 20 -11 99 -29 157 -37 22 -3 46 -10
53 -16 7 -6 101 -12 225 -14 201 -5 332 3 437 27 25 5 73 15 108 22 34 6 62
15 62 20 0 4 8 8 18 8 18 0 97 25 149 47 17 7 36 13 41 13 6 0 32 11 59 24 26
13 92 45 145 71 54 25 121 62 149 81 28 18 53 34 55 34 3 0 10 5 17 10 7 6 50
40 97 76 166 127 345 320 469 507 77 114 159 285 226 467 15 41 31 82 35 90 4
9 11 36 15 60 4 25 11 50 15 55 4 6 10 24 13 40 3 17 8 41 11 55 31 120 40
467 18 650 -14 119 -52 319 -71 380 -5 14 -16 52 -26 85 -15 53 -29 93 -55
160 -43 109 -154 302 -207 360 -10 11 -40 48 -68 82 -60 76 -313 326 -416 414
-197 166 -318 248 -402 273 -21 6 -38 16 -38 21 0 6 38 13 83 16 46 4 126 12
178 18 52 6 118 14 145 17 28 3 77 10 110 15 127 20 176 22 203 8 31 -16 84
-53 127 -89 38 -32 254 -247 280 -280 189 -234 357 -510 465 -765 18 -44 37
-84 41 -90 4 -5 10 -27 14 -47 4 -21 11 -38 15 -38 4 0 11 -20 14 -45 4 -24
11 -47 15 -50 7 -4 18 -46 25 -97 1 -3 4 -10 9 -14 4 -4 7 -21 7 -39 0 -17 4
-35 9 -40 43 -43 44 -899 1 -990 -5 -11 -11 -38 -14 -60 -6 -54 -29 -158 -38
-170 -3 -6 -9 -27 -13 -48 -4 -20 -11 -40 -16 -43 -5 -3 -9 -12 -9 -21 0 -8
-7 -31 -16 -51 -9 -21 -20 -46 -24 -57 -20 -51 -108 -226 -142 -283 -21 -34
-38 -65 -38 -68 0 -2 -5 -10 -10 -17 -6 -7 -38 -55 -73 -107 -34 -52 -66 -100
-72 -107 -5 -6 -21 -26 -35 -44 -100 -132 -161 -201 -285 -325 -77 -77 -167
-160 -199 -185 -213 -163 -401 -267 -636 -354 -41 -15 -84 -31 -95 -36 -39
-17 -176 -60 -223 -70 -99 -22 -196 -28 -467 -28 -368 0 -611 23 -730 69 -11
4 -51 18 -90 30 -38 12 -74 26 -79 31 -6 5 -16 9 -22 9 -7 0 -52 18 -101 41
-356 165 -427 213 -624 415 -130 135 -225 244 -279 324 -8 12 -25 34 -37 48
-13 15 -23 30 -23 34 0 4 -6 13 -13 20 -7 7 -24 31 -37 53 -13 22 -27 42 -30
45 -3 3 -21 30 -40 60 -19 30 -37 57 -40 60 -4 3 -28 41 -55 85 -27 44 -52 82
-55 85 -4 3 -9 12 -13 20 -7 15 -25 44 -40 64 -4 6 -35 54 -70 106 -34 52 -65
97 -69 98 -5 2 -8 9 -8 15 0 24 -137 169 -192 203 -46 30 -165 50 -232 40 -62
-10 -107 -50 -185 -169 -33 -51 -64 -96 -68 -102 -5 -5 -17 -27 -28 -47 -11
-21 -23 -38 -27 -38 -5 0 -8 -5 -8 -11 0 -13 -166 -287 -268 -444 -185 -283
-395 -528 -592 -690 -93 -77 -156 -125 -163 -125 -3 0 -28 -16 -56 -35 -28
-18 -80 -47 -114 -64 -107 -51 -198 -91 -208 -91 -5 0 -17 -4 -27 -9 -15 -9
-98 -34 -202 -61 -98 -26 -170 -40 -203 -40 -20 0 -46 -4 -59 -10 -13 -5 -99
-14 -193 -21 -93 -6 -201 -13 -240 -16 -121 -10 -447 25 -580 61 -5 2 -23 6
-40 10 -16 4 -39 11 -50 15 -11 4 -51 18 -90 30 -38 13 -81 27 -95 33 -14 6
-34 14 -45 18 -103 40 -374 189 -413 227 -7 7 -16 13 -20 13 -4 0 -19 10 -34
23 -14 12 -36 29 -49 37 -12 8 -36 27 -53 41 -17 14 -44 37 -61 50 -51 41
-278 268 -325 326 -25 30 -55 67 -68 81 -12 15 -35 45 -50 67 -15 22 -29 42
-32 45 -4 3 -22 28 -41 55 -18 28 -37 52 -40 55 -3 3 -8 12 -12 20 -8 18 -30
53 -37 60 -10 9 -85 136 -110 185 -14 28 -28 52 -32 55 -3 3 -10 18 -13 33 -4
15 -11 27 -16 27 -5 0 -9 9 -9 20 0 11 -4 20 -10 20 -5 0 -10 5 -10 11 0 6 -7
26 -15 45 -8 19 -22 49 -30 68 -8 19 -15 41 -15 49 0 9 -4 18 -9 21 -5 3 -12
22 -16 42 -3 20 -10 44 -15 53 -8 15 -19 54 -41 146 -5 22 -14 72 -20 110 -5
39 -15 99 -21 135 -16 104 -3 454 26 660 15 112 67 344 85 385 5 11 17 43 26
70 20 58 24 68 64 158 17 38 31 70 31 71 0 6 91 170 114 206 13 19 43 67 67
105 24 39 47 75 52 80 4 6 40 56 80 112 139 196 309 386 397 442 14 8 54 37
90 62 87 63 127 76 240 82 114 6 488 -7 616 -22 99 -12 168 -33 139 -45 -9 -3
-27 -6 -39 -6 -12 0 -26 -4 -32 -8 -5 -4 -27 -14 -49 -21 -110 -36 -280 -135
-475 -275 -229 -166 -357 -286 -513 -486 -26 -33 -142 -208 -169 -255 -28 -49
-111 -217 -140 -285 -16 -37 -57 -157 -77 -225 -25 -86 -33 -192 -38 -505 -6
-429 6 -507 126 -815 48 -123 189 -383 213 -393 5 -2 8 -9 8 -15 0 -7 10 -23
23 -37 12 -14 32 -38 45 -54 53 -69 143 -163 218 -230 110 -97 116 -101 229
-184 55 -39 105 -76 112 -82 76 -62 375 -207 465 -225 18 -3 42 -10 53 -15 23
-10 109 -26 235 -42 113 -15 492 -16 605 -1 199 26 265 37 265 45 0 4 10 8 23
8 25 0 102 23 154 46 17 8 36 14 42 14 6 0 19 4 29 9 9 6 64 33 122 60 101 49
179 91 190 101 3 3 22 15 44 26 75 41 245 174 327 256 128 127 272 316 355
468 10 19 21 37 24 40 12 12 56 95 126 240 41 85 79 163 85 172 5 10 9 23 9
29 0 6 6 25 14 42 42 95 90 391 88 547 -1 135 -35 461 -51 490 -5 9 -12 39
-16 68 -4 29 -11 54 -16 58 -5 3 -9 13 -9 22 0 18 -47 147 -77 212 -171 372
-362 633 -627 858 -204 173 -382 281 -731 443 -158 73 -238 110 -312 145 -133
62 -218 101 -253 117 -19 8 -66 29 -103 46 -38 17 -74 31 -81 31 -7 0 -16 3
-19 6 -11 12 -109 42 -187 59 -146 31 -166 34 -290 40 -69 3 -163 10 -210 15
-47 6 -130 15 -185 21 -179 20 -491 70 -600 97 -38 10 -114 28 -215 52 -25 6
-54 14 -65 19 -11 4 -65 23 -120 41 -183 61 -334 150 -513 303 -128 108 -204
187 -274 282 -32 44 -65 89 -73 100 -8 10 -15 23 -15 27 0 10 51 -1 65 -13z
m8415 -2054 c88 -19 171 -46 258 -86 35 -16 65 -29 68 -29 18 0 210 -130 305
-206 222 -178 342 -330 448 -566 12 -26 21 -51 21 -56 0 -5 7 -23 15 -38 8
-16 15 -39 15 -51 0 -12 4 -24 9 -28 5 -3 12 -31 16 -63 3 -31 10 -65 16 -75
15 -27 22 -375 10 -502 -11 -127 -27 -219 -42 -255 -6 -14 -17 -38 -24 -55 -7
-16 -27 -60 -44 -96 -17 -36 -31 -71 -31 -77 0 -7 -4 -12 -10 -12 -5 0 -10 -5
-10 -11 0 -15 -70 -126 -135 -214 -60 -82 -197 -221 -270 -275 -56 -42 -241
-150 -255 -150 -5 0 -26 -7 -47 -16 -21 -9 -47 -21 -58 -25 -29 -12 -95 -28
-215 -50 -83 -15 -136 -19 -255 -16 -157 4 -313 22 -330 38 -5 5 -17 9 -27 9
-63 0 -303 117 -421 206 -109 82 -238 203 -310 292 -65 80 -167 231 -167 248
0 7 -3 14 -7 16 -8 3 -65 115 -89 173 -6 17 -17 41 -23 55 -16 37 -47 137 -60
200 -7 30 -17 69 -22 85 -23 79 -21 278 6 410 3 17 13 66 21 110 9 44 19 87
24 95 4 9 11 36 15 60 4 25 11 50 15 55 4 6 10 22 14 38 4 15 18 52 31 82 14
29 25 59 25 64 0 6 5 11 10 11 6 0 10 6 10 14 0 8 6 21 13 28 7 7 28 35 47 63
133 189 348 388 514 476 129 67 256 105 476 139 83 13 363 4 450 -15z m-5090
-33 c119 -35 229 -88 365 -178 298 -198 492 -481 595 -869 45 -173 46 -548 1
-699 -5 -17 -17 -58 -27 -91 -10 -33 -21 -64 -26 -69 -4 -6 -8 -17 -8 -25 0
-34 -157 -328 -210 -394 -41 -52 -139 -167 -160 -187 -69 -68 -210 -181 -285
-227 -89 -54 -271 -133 -308 -133 -13 0 -27 -4 -32 -9 -21 -20 -269 -51 -405
-50 -182 0 -408 37 -525 84 -175 72 -285 146 -425 285 -189 190 -358 444 -425
640 -11 30 -22 60 -26 65 -4 6 -10 26 -14 45 -4 19 -12 41 -19 49 -7 9 -12 88
-14 220 -7 417 36 584 224 868 271 408 600 627 1029 683 50 6 97 13 105 15 8
2 130 2 270 0 213 -3 266 -7 320 -23z m-3718 -2042 c8 -78 29 -183 38 -190 4
-3 10 -23 14 -45 4 -22 11 -44 16 -50 4 -5 11 -23 15 -40 5 -16 9 -32 10 -35
8 -23 18 -48 25 -61 5 -9 12 -33 15 -53 4 -20 11 -36 16 -36 5 0 9 -7 9 -16 0
-9 6 -30 14 -47 7 -18 21 -52 31 -77 9 -25 21 -54 26 -65 34 -83 51 -122 59
-137 6 -10 10 -25 10 -33 0 -8 4 -15 9 -15 5 0 12 -11 15 -25 5 -21 99 -182
128 -220 10 -13 65 -81 106 -133 40 -48 54 -64 178 -197 51 -55 102 -112 114
-125 12 -14 65 -70 118 -125 148 -153 344 -365 409 -445 12 -14 38 -46 59 -71
124 -148 304 -414 304 -447 0 -6 4 -12 9 -14 9 -3 162 -317 192 -393 4 -11 22
-51 38 -88 17 -38 31 -77 31 -88 0 -10 4 -19 9 -19 5 0 12 -18 16 -40 4 -22
10 -40 15 -40 4 0 11 -16 15 -36 3 -20 10 -44 15 -53 4 -9 16 -43 25 -76 10
-33 21 -67 25 -75 4 -9 11 -36 15 -60 4 -25 10 -49 14 -55 3 -5 12 -37 19 -70
7 -33 17 -78 22 -100 5 -22 13 -60 19 -85 6 -25 10 -62 11 -83 0 -20 4 -45 9
-55 27 -48 51 -828 29 -927 -3 -16 -9 -79 -13 -139 -4 -61 -11 -117 -15 -125
-5 -9 -13 -50 -19 -91 -18 -122 -23 -144 -31 -155 -4 -5 -11 -34 -15 -62 -4
-29 -11 -55 -15 -58 -4 -3 -11 -28 -15 -55 -4 -28 -11 -50 -16 -50 -5 0 -9 -8
-9 -18 0 -20 -26 -108 -40 -133 -5 -9 -12 -33 -15 -53 -4 -20 -11 -39 -16 -42
-5 -3 -9 -12 -9 -21 0 -8 -7 -30 -15 -49 -19 -43 -38 -89 -56 -134 -50 -123
-286 -554 -333 -607 -6 -6 -29 -37 -51 -67 -22 -30 -42 -55 -45 -55 -3 0 -20
21 -37 47 -37 54 -55 75 -161 191 -109 119 -112 123 -112 136 0 11 55 94 70
105 14 11 119 190 157 270 80 166 103 218 103 234 0 9 5 16 10 16 6 0 10 7 10
16 0 9 7 32 16 52 9 21 23 51 30 69 8 17 14 38 14 46 0 9 4 18 9 21 5 4 12 25
16 49 4 23 11 44 14 47 7 5 27 77 38 135 3 17 9 35 13 40 4 6 11 30 14 55 4
25 11 54 16 65 48 108 48 1296 0 1386 -4 8 -11 46 -15 82 -4 37 -11 70 -16 73
-5 3 -9 18 -9 34 0 16 -4 31 -9 34 -5 4 -12 25 -16 48 -4 23 -11 49 -15 58 -5
8 -16 38 -25 65 -9 28 -23 64 -30 80 -7 17 -18 41 -23 55 -38 89 -60 137 -107
230 -85 169 -140 275 -145 280 -3 3 -10 14 -16 25 -59 108 -85 153 -136 235
-32 52 -64 104 -71 115 -7 11 -14 22 -17 25 -3 3 -21 25 -40 50 -134 173 -524
568 -729 739 -24 20 -49 41 -55 46 -6 6 -31 26 -56 45 -25 19 -47 37 -50 41
-16 20 -290 213 -361 254 -175 100 -220 141 -198 176 5 8 9 26 9 41 0 15 4 29
9 33 5 3 13 41 17 85 3 44 11 80 15 80 5 0 9 19 9 43 1 23 5 60 10 82 5 22 12
54 15 70 4 17 11 39 15 50 5 11 14 43 19 70 14 70 31 137 40 155 5 9 12 35 16
58 4 23 11 44 16 48 5 3 9 16 9 29 0 13 4 26 9 29 4 3 11 24 15 46 3 23 10 49
15 58 5 9 17 40 26 67 9 28 23 64 31 82 8 17 14 38 14 46 0 9 4 18 9 22 5 3
12 19 16 36 5 21 12 29 23 27 13 -2 19 -19 24 -68z m11808 -18 c12 -39 18 -53
44 -114 9 -20 16 -43 16 -51 0 -9 4 -18 9 -21 5 -4 12 -24 16 -46 4 -22 11
-42 16 -46 5 -3 9 -16 9 -29 0 -13 4 -26 9 -29 5 -4 12 -29 16 -56 4 -27 11
-52 15 -55 4 -3 11 -29 15 -58 4 -28 11 -56 15 -62 4 -5 10 -23 14 -40 4 -16
9 -39 11 -50 3 -11 8 -36 11 -55 4 -19 10 -39 14 -45 4 -5 11 -35 14 -65 4
-30 11 -64 16 -75 5 -11 14 -47 20 -80 6 -33 16 -82 21 -110 6 -27 12 -70 15
-95 l4 -45 -127 -78 c-71 -42 -137 -83 -147 -90 -27 -17 -168 -119 -183 -132
-6 -5 -26 -21 -44 -35 -81 -61 -285 -246 -414 -375 -132 -131 -196 -201 -309
-335 -26 -30 -52 -62 -60 -70 -14 -17 -100 -130 -131 -174 -11 -16 -25 -33
-31 -40 -5 -6 -13 -18 -17 -26 -9 -19 -30 -53 -38 -60 -12 -11 -99 -158 -99
-168 0 -5 -3 -12 -7 -14 -5 -1 -17 -21 -28 -43 -11 -22 -22 -42 -25 -45 -6 -6
-82 -161 -104 -210 -13 -31 -36 -85 -68 -160 -6 -14 -14 -32 -18 -41 -5 -9
-12 -33 -15 -53 -4 -20 -11 -36 -16 -36 -5 0 -9 -10 -9 -22 0 -13 -7 -36 -15
-52 -8 -15 -15 -36 -15 -45 0 -10 -3 -21 -7 -25 -5 -4 -8 -11 -9 -14 -2 -20
-16 -69 -23 -82 -5 -9 -12 -36 -16 -60 -4 -25 -11 -49 -15 -55 -4 -5 -10 -26
-13 -45 -3 -19 -9 -46 -13 -60 -3 -14 -9 -41 -11 -60 -3 -19 -9 -39 -13 -45
-5 -5 -11 -41 -15 -80 -4 -38 -10 -74 -14 -80 -7 -11 -25 -157 -42 -340 -14
-147 -14 -488 0 -650 14 -151 34 -307 42 -320 4 -5 9 -39 13 -74 4 -35 11 -71
16 -80 4 -9 15 -50 25 -91 9 -41 21 -84 25 -95 5 -11 18 -49 30 -85 11 -36 26
-76 32 -90 6 -14 14 -34 19 -45 4 -11 17 -41 28 -67 12 -26 21 -52 21 -57 0
-6 3 -11 8 -11 8 0 42 -73 42 -90 0 -6 4 -10 9 -10 5 0 13 -10 17 -22 7 -22
106 -187 134 -222 8 -11 25 -29 38 -41 12 -12 22 -27 22 -32 0 -21 -121 -151
-264 -283 l-58 -54 -19 25 c-15 19 -82 123 -134 207 -6 9 -27 42 -46 72 -35
53 -145 274 -189 375 -11 28 -25 59 -30 70 -49 111 -60 138 -66 162 -4 14 -13
38 -20 52 -8 14 -14 34 -14 43 0 9 -4 19 -9 22 -5 3 -12 23 -16 43 -4 21 -10
43 -15 48 -6 8 -21 66 -24 97 -1 3 -4 10 -8 14 -5 4 -8 17 -8 29 0 11 -4 25
-9 30 -18 20 -56 264 -70 450 -8 104 -15 447 -13 620 2 132 34 429 51 470 5
11 13 52 19 90 6 39 15 88 21 110 11 41 32 132 51 220 6 28 15 57 19 65 5 9
12 35 16 58 4 23 11 44 16 48 5 3 9 16 9 29 0 13 4 26 9 30 6 3 13 26 17 50 3
25 10 48 15 51 5 3 9 12 9 21 0 8 6 29 14 46 7 18 21 52 31 77 42 109 85 206
154 350 22 44 77 144 108 192 12 21 23 40 23 44 0 9 224 343 254 379 14 17 29
35 33 40 5 6 24 30 43 55 19 25 42 54 51 65 30 36 144 170 149 175 3 3 46 50
95 104 50 55 108 119 130 141 39 40 249 264 310 330 104 113 164 183 190 224
16 25 32 48 35 51 7 7 85 165 110 225 33 78 37 87 54 130 10 22 21 48 26 57 6
10 10 23 10 29 0 6 6 25 14 42 8 18 22 55 31 82 9 28 21 59 25 70 5 11 12 36
16 55 3 19 10 41 15 50 10 20 23 72 20 87 -1 6 3 14 9 18 5 3 10 24 10 45 0
21 4 41 9 44 4 3 11 32 15 64 10 85 25 93 46 24z m-5871 -1024 c35 -43 106
-133 151 -193 39 -54 166 -212 231 -290 44 -53 133 -141 176 -174 l42 -32 -48
-72 c-27 -40 -68 -108 -91 -152 -24 -44 -56 -105 -73 -135 -16 -30 -53 -100
-82 -155 -86 -163 -90 -170 -97 -173 -5 -2 -8 -8 -8 -14 0 -14 -140 -242 -151
-246 -5 -2 -9 -10 -9 -17 0 -8 -6 -20 -13 -27 -7 -7 -24 -37 -37 -66 -15 -32
-31 -51 -39 -50 -14 3 -130 182 -131 201 0 5 -8 21 -19 35 -10 15 -40 68 -67
117 -26 50 -63 117 -81 150 -72 132 -213 424 -234 488 -21 60 -22 71 -10 104
15 40 65 125 93 158 9 11 26 31 37 44 12 13 21 27 21 30 0 3 10 17 23 31 12
14 42 52 66 85 25 33 57 76 73 95 48 58 68 83 91 116 12 17 38 51 57 74 78 97
96 106 129 68z m-1132 -1294 c53 -69 133 -185 133 -193 0 -5 4 -11 8 -13 4 -1
32 -43 62 -91 30 -48 63 -100 72 -115 10 -15 21 -34 25 -42 3 -8 9 -17 12 -20
10 -9 31 -44 37 -62 4 -10 9 -18 13 -18 3 0 18 -21 31 -47 14 -27 28 -49 33
-51 4 -2 7 -8 7 -14 0 -6 11 -25 24 -42 13 -17 26 -41 30 -53 4 -13 12 -23 17
-23 5 0 9 -4 9 -10 0 -5 50 -91 110 -190 61 -99 110 -182 110 -185 0 -3 18
-34 40 -70 22 -36 40 -70 40 -75 0 -6 5 -10 10 -10 6 0 10 -5 10 -10 0 -6 27
-57 60 -114 33 -57 60 -109 60 -115 0 -6 5 -11 10 -11 6 0 10 -4 10 -10 0 -5
19 -41 42 -80 33 -54 47 -70 65 -70 13 0 23 3 23 8 0 4 10 20 23 35 51 65 64
84 87 122 13 22 27 42 30 45 13 10 100 157 100 168 0 7 5 12 10 12 6 0 10 8
10 18 0 9 25 53 55 97 86 123 115 169 115 182 0 6 3 13 8 15 4 2 23 35 42 73
19 39 37 72 40 75 3 3 15 25 28 50 26 50 44 83 53 90 3 3 16 23 29 45 13 22
27 42 30 45 4 3 33 43 65 90 32 47 62 87 67 88 4 2 8 7 8 12 0 8 80 135 98
156 5 6 13 20 16 32 4 12 11 22 16 22 4 0 10 8 14 18 6 18 27 53 37 62 3 3 16
23 30 46 41 69 133 194 144 194 5 0 41 -21 80 -48 38 -26 89 -56 112 -67 24
-11 43 -23 43 -27 0 -4 16 -10 35 -14 19 -3 35 -10 35 -15 0 -5 8 -9 18 -9 9
0 30 -7 46 -15 15 -8 34 -15 41 -15 7 0 26 -7 41 -15 16 -8 39 -15 52 -15 12
0 22 -4 22 -10 0 -5 8 -10 19 -10 17 0 58 -11 169 -46 23 -8 56 -14 72 -14 17
0 30 -4 30 -9 0 -5 29 -12 65 -16 36 -3 67 -11 70 -16 4 -5 18 -9 33 -9 15 0
59 -7 97 -15 39 -8 90 -15 115 -15 26 0 51 -5 57 -11 15 -15 488 -14 527 1 15
5 55 10 89 10 34 0 91 5 127 11 36 5 94 14 130 19 36 5 90 14 119 20 30 5 57
7 60 4 3 -2 -2 -19 -11 -37 -15 -28 -39 -82 -91 -197 -8 -19 -27 -61 -41 -92
-14 -31 -26 -64 -26 -72 0 -9 -4 -16 -9 -16 -5 0 -11 -12 -14 -27 -3 -16 -14
-46 -23 -68 -10 -22 -18 -42 -19 -45 -1 -3 -5 -18 -9 -35 -4 -16 -11 -37 -15
-45 -5 -9 -12 -31 -16 -50 -4 -19 -11 -41 -15 -50 -13 -24 -40 -121 -40 -141
0 -10 -4 -20 -9 -23 -5 -4 -12 -30 -16 -59 -4 -28 -10 -56 -14 -62 -6 -9 -25
-97 -38 -175 -3 -19 -9 -39 -13 -45 -5 -5 -11 -41 -15 -80 -3 -38 -10 -79 -15
-90 -5 -11 -14 -65 -20 -120 -7 -55 -16 -136 -21 -180 -37 -319 -37 -757 0
-980 6 -33 15 -91 21 -130 6 -38 15 -79 20 -90 5 -11 12 -44 15 -72 4 -29 11
-55 16 -59 5 -3 9 -18 9 -34 0 -16 4 -32 10 -35 5 -3 12 -28 16 -55 4 -28 10
-50 15 -50 5 0 9 -7 9 -15 0 -18 38 -143 51 -167 5 -10 9 -27 9 -38 0 -11 4
-20 9 -20 5 0 12 -16 16 -36 3 -20 10 -44 15 -53 4 -9 16 -36 25 -61 9 -25 23
-60 31 -78 8 -18 14 -39 14 -47 0 -8 3 -15 8 -15 4 0 15 -23 25 -51 10 -28 32
-79 48 -114 16 -35 29 -68 29 -74 0 -6 5 -11 10 -11 6 0 10 -5 10 -11 0 -14
100 -213 134 -267 14 -23 26 -45 26 -50 0 -11 95 -155 161 -242 95 -127 102
-140 76 -140 -22 0 -195 -95 -217 -120 -9 -9 -143 -97 -180 -117 -19 -11 -61
-34 -93 -52 -105 -58 -171 -91 -184 -91 -7 0 -13 -4 -13 -10 0 -5 -4 -10 -9
-10 -5 0 -51 -20 -103 -45 -51 -25 -99 -45 -105 -45 -7 0 -13 -4 -13 -10 0 -5
-8 -10 -17 -10 -10 0 -27 -7 -37 -15 -11 -8 -28 -15 -38 -15 -10 0 -18 -4 -18
-10 0 -5 -5 -10 -11 -10 -10 0 -61 -22 -143 -61 -22 -11 -45 -19 -50 -19 -6 0
-38 -14 -71 -30 -33 -16 -68 -30 -77 -30 -10 0 -18 -4 -18 -9 0 -5 -18 -12
-40 -16 -22 -4 -40 -11 -40 -16 0 -5 -9 -9 -19 -9 -11 0 -22 -4 -26 -9 -3 -5
-19 -12 -36 -16 -17 -4 -42 -13 -57 -21 -15 -8 -35 -14 -44 -14 -9 0 -19 -4
-23 -9 -3 -5 -20 -13 -37 -17 -18 -3 -40 -10 -50 -15 -10 -5 -26 -13 -37 -18
-10 -5 -36 -13 -57 -17 -22 -3 -43 -10 -49 -14 -5 -4 -26 -11 -45 -15 -19 -4
-41 -11 -50 -15 -23 -13 -158 -49 -280 -75 -41 -9 -88 -21 -105 -25 -16 -5
-50 -12 -75 -15 -25 -4 -54 -10 -65 -15 -11 -5 -51 -14 -90 -20 -38 -6 -92
-15 -120 -21 -27 -5 -84 -14 -125 -20 -41 -5 -88 -14 -105 -19 -16 -5 -75 -12
-130 -16 -55 -4 -104 -10 -110 -14 -5 -4 -55 -10 -110 -14 -55 -4 -120 -10
-145 -12 -106 -12 -648 -14 -749 -4 -58 7 -135 14 -171 16 -36 3 -72 8 -80 12
-8 3 -60 12 -115 18 -55 7 -125 18 -155 23 -66 13 -100 18 -160 27 -25 3 -49
10 -55 14 -5 4 -40 11 -77 15 -37 3 -70 10 -73 15 -2 4 -31 11 -62 15 -32 4
-62 10 -68 15 -5 4 -26 10 -45 13 -60 9 -134 27 -152 37 -10 6 -27 10 -38 10
-10 0 -41 7 -67 15 -26 9 -73 23 -103 32 -30 9 -64 19 -75 24 -11 4 -36 11
-55 15 -19 3 -41 10 -50 15 -13 6 -38 17 -60 24 -3 1 -18 5 -35 9 -16 4 -44
14 -62 22 -17 8 -36 14 -42 14 -6 0 -19 4 -29 9 -16 9 -51 23 -62 25 -30 7
-191 70 -243 97 -22 10 -44 19 -50 19 -6 0 -40 14 -76 31 -36 17 -79 37 -96
44 -56 25 -340 166 -420 209 -122 64 -165 89 -360 208 -178 109 -215 134 -215
148 0 4 46 81 101 171 142 229 218 374 309 584 4 11 20 45 34 75 14 30 28 67
32 83 3 15 10 30 15 33 5 3 9 12 9 21 0 8 6 29 14 46 8 18 22 55 31 82 9 28
20 57 25 65 4 9 11 31 14 50 4 19 11 44 16 55 5 11 16 47 25 80 9 33 21 71 26
85 5 14 13 45 19 70 6 25 18 72 26 105 9 33 18 76 21 95 3 19 9 40 13 45 4 6
11 37 14 70 4 33 12 74 17 90 28 90 50 636 39 975 -9 264 -26 473 -40 505 -4
11 -11 40 -14 65 -5 44 -8 56 -27 130 -4 19 -15 64 -23 100 -16 68 -23 97 -51
195 -9 33 -22 80 -28 105 -6 25 -14 47 -18 50 -3 3 -9 22 -13 44 -4 21 -11 46
-16 55 -5 9 -21 50 -36 91 -29 81 -36 99 -83 203 -17 38 -31 75 -31 83 0 8 -4
14 -10 14 -5 0 -10 7 -10 16 0 9 -6 30 -14 47 -24 56 -36 88 -36 94 0 5 92 -1
225 -17 210 -25 263 -28 435 -28 168 0 297 7 405 23 121 17 232 38 246 45 9 4
41 11 73 15 31 4 58 11 61 15 3 5 28 11 55 15 27 4 52 11 56 16 3 5 16 9 29 9
13 0 26 4 30 9 3 6 26 13 50 17 25 3 45 10 45 14 0 4 16 11 36 15 20 3 44 10
53 15 17 8 70 32 111 48 37 15 222 101 245 114 11 7 40 22 65 34 50 25 44 28
97 -42z"/>
<path d="M10460 11730 c-319 -53 -568 -269 -662 -575 -9 -27 -22 -70 -29 -95
-18 -58 -19 -366 -2 -401 6 -13 14 -45 18 -71 3 -26 10 -50 16 -53 5 -4 9 -14
9 -23 0 -9 14 -44 30 -77 16 -33 30 -65 30 -72 0 -6 3 -13 8 -15 4 -1 14 -15
22 -29 84 -148 264 -315 410 -382 33 -15 78 -29 180 -59 61 -18 384 -18 402 0
6 6 22 12 34 12 35 0 153 58 225 111 36 27 101 86 145 131 76 79 184 229 184
256 0 6 4 12 9 12 5 0 13 14 16 32 4 18 11 39 15 48 29 58 54 233 53 365 -1
91 -20 236 -37 280 -97 255 -404 539 -633 586 -140 28 -336 37 -443 19z m-32
-454 c68 -64 92 -117 92 -202 0 -86 -21 -133 -85 -197 -63 -64 -117 -91 -181
-91 -151 -1 -252 211 -174 367 45 91 157 166 248 167 49 0 56 -3 100 -44z"/>
<path d="M5205 11733 c-46 -7 -203 -61 -256 -87 -115 -58 -219 -140 -309 -242
-115 -131 -215 -354 -244 -545 -12 -84 -12 -108 0 -180 8 -46 18 -93 23 -104
6 -11 13 -31 17 -45 12 -47 88 -195 143 -280 167 -258 433 -400 751 -403 41 0
91 3 110 6 19 4 53 10 75 12 91 13 292 95 363 150 91 70 186 172 245 263 36
57 104 199 113 237 4 17 10 35 14 40 5 6 11 33 15 60 4 28 12 61 17 75 5 14
10 90 10 171 0 133 -2 152 -27 225 -34 98 -58 141 -139 252 -118 160 -247 262
-408 322 -120 44 -252 71 -368 75 -63 2 -128 1 -145 -2z m-169 -427 c34 -23
84 -95 106 -154 21 -54 24 -148 6 -189 -21 -48 -75 -109 -129 -144 -44 -28
-60 -33 -114 -33 -72 0 -114 22 -170 87 -88 103 -70 225 53 358 88 96 175 122
248 75z"/>
<path d="M9441 6728 c-100 -9 -185 -52 -266 -135 -52 -53 -72 -83 -116 -174
-14 -30 -31 -143 -30 -199 2 -76 8 -100 38 -170 36 -85 52 -109 118 -176 116
-117 201 -146 390 -133 73 5 100 12 140 34 147 82 294 319 295 473 0 136 -83
292 -204 381 -113 84 -219 113 -365 99z"/>
<path d="M6425 6700 c-86 -6 -152 -40 -242 -123 -70 -66 -142 -172 -150 -223
-3 -19 -10 -37 -14 -40 -15 -9 -10 -166 7 -214 49 -146 144 -267 254 -324 45
-23 73 -29 154 -35 54 -3 130 -4 167 0 59 5 75 11 121 46 103 79 171 153 222
245 14 26 26 53 26 62 0 8 5 16 10 18 6 2 14 44 17 94 7 109 -10 176 -70 271
-43 70 -170 193 -197 193 -10 0 -20 5 -22 10 -4 14 -191 27 -283 20z"/>
<path d="M7905 5200 c-3 -5 -14 -10 -23 -10 -34 0 -128 -57 -181 -109 -38 -38
-91 -107 -91 -119 0 -6 -3 -12 -7 -14 -14 -6 -63 -117 -74 -165 -20 -94 -21
-105 -12 -126 6 -12 18 -47 29 -77 10 -30 24 -66 31 -80 7 -14 13 -31 13 -37
0 -7 5 -13 10 -13 6 0 10 -5 10 -11 0 -37 160 -179 201 -179 10 0 19 -4 19 -8
0 -10 122 -35 170 -35 50 0 170 24 170 34 0 5 7 9 17 9 32 0 142 79 207 148
34 36 96 144 96 166 0 8 6 16 13 19 9 3 12 36 12 123 -1 128 -1 127 -81 255
-53 85 -253 219 -327 219 -14 0 -29 5 -32 10 -3 6 -42 10 -85 10 -43 0 -82 -4
-85 -10z"/>
<path d="M5955 5036 c-33 -7 -82 -27 -110 -44 -57 -37 -195 -170 -195 -189 0
-7 -4 -13 -9 -13 -5 0 -17 -20 -28 -45 -10 -25 -21 -45 -25 -45 -4 0 -10 -21
-14 -47 -3 -27 -11 -53 -16 -60 -12 -15 -5 -131 12 -197 32 -126 174 -281 325
-354 44 -22 63 -25 160 -24 121 0 166 12 243 65 52 35 150 133 158 159 3 10 9
18 13 18 7 0 21 28 84 159 15 30 16 210 1 242 -47 104 -86 168 -129 214 -50
53 -152 125 -178 125 -7 0 -17 4 -23 10 -8 8 -100 27 -179 35 -16 2 -57 -2
-90 -9z"/>
<path d="M9815 5010 c-3 -5 -17 -10 -30 -10 -32 0 -131 -53 -174 -93 -45 -43
-109 -141 -123 -191 -6 -23 -16 -47 -21 -54 -15 -20 -15 -248 1 -263 6 -7 12
-20 12 -28 0 -28 100 -174 152 -223 91 -85 225 -135 337 -125 59 5 127 23 141
37 3 3 23 14 44 25 41 21 176 146 176 164 0 5 6 16 13 23 13 14 35 57 62 123
9 22 21 49 26 60 34 79 28 181 -18 263 -41 75 -123 181 -162 210 -20 15 -38
30 -41 33 -6 6 -82 32 -146 48 -52 14 -241 14 -249 1z"/>
<path d="M7893 3463 c-18 -2 -33 -8 -33 -14 0 -5 -6 -9 -13 -9 -13 0 -73 -28
-112 -53 -31 -20 -125 -113 -125 -125 0 -6 -4 -12 -9 -14 -14 -5 -71 -115 -71
-137 0 -11 -4 -23 -10 -26 -12 -8 -13 -179 -1 -203 5 -9 24 -48 42 -87 24 -51
54 -91 109 -145 41 -41 84 -81 95 -87 38 -24 104 -53 119 -53 8 0 18 -4 21
-10 8 -13 182 -13 189 -1 4 5 24 12 46 16 22 4 40 11 40 16 0 5 5 9 11 9 38 0
269 201 269 234 0 3 12 31 28 63 23 50 27 70 27 149 0 57 -5 102 -14 120 -8
16 -21 45 -30 64 -9 19 -22 41 -28 48 -7 7 -13 16 -13 20 -1 22 -145 152 -169
152 -6 0 -11 5 -11 10 0 6 -5 10 -11 10 -6 0 -25 6 -42 14 -18 7 -45 19 -62
26 -32 13 -187 21 -242 13z"/>
</g>
</svg>
