<?xml version="1.0" standalone="no"?>
<!DOCTYPE svg PUBLIC "-//W3C//DTD SVG 20010904//EN"
 "http://www.w3.org/TR/2001/REC-SVG-20010904/DTD/svg10.dtd">
<svg version="1.0" xmlns="http://www.w3.org/2000/svg"
 width="512.000000pt" height="512.000000pt" viewBox="0 0 512.000000 512.000000"
 preserveAspectRatio="xMidYMid meet">
<metadata>
Created by potrace 1.16, written by Peter Selinger 2001-2019
</metadata>
<g transform="translate(0.000000,512.000000) scale(0.100000,-0.100000)"
fill="#000000" stroke="none">
<path d="M2425 4689 c-343 -17 -696 -129 -989 -313 -48 -31 -91 -56 -95 -56
-4 0 -22 16 -41 35 -50 52 -108 75 -187 75 -123 0 -209 -60 -253 -177 -66
-173 -230 -671 -230 -698 0 -96 67 -202 154 -245 85 -41 136 -32 499 84 345
111 386 128 429 173 87 92 91 270 7 359 -20 21 -20 21 3 36 56 37 213 109 307
142 844 294 1772 -158 2070 -1008 32 -91 81 -310 81 -363 0 -16 7 -54 16 -84
58 -196 340 -231 448 -55 38 61 44 130 22 286 -64 458 -271 869 -605 1200
-440 437 -987 640 -1636 609z m316 -169 c636 -64 1193 -420 1514 -965 136
-231 232 -519 260 -782 7 -60 6 -64 -23 -93 -55 -55 -134 -27 -145 51 -49 349
-135 591 -296 831 -504 753 -1483 1012 -2295 606 -114 -57 -199 -109 -238
-146 -42 -39 -39 -88 8 -133 57 -53 94 -109 94 -140 0 -17 -11 -41 -27 -59
-24 -26 -72 -44 -355 -135 -180 -58 -339 -105 -353 -105 -39 0 -85 50 -85 92
0 19 50 178 110 354 92 267 115 324 140 347 54 49 91 37 192 -59 45 -43 74
-64 91 -64 13 0 60 24 103 54 127 86 246 151 380 205 181 75 353 117 599 145
68 7 229 5 326 -4z"/>
<path d="M2368 3744 c-461 -71 -844 -422 -965 -884 -34 -129 -43 -354 -19
-492 47 -276 190 -530 397 -707 286 -243 667 -340 1029 -261 481 105 842 479
926 961 24 140 15 371 -19 502 -52 197 -146 369 -280 513 -275 294 -670 431
-1069 368z m393 -170 c419 -85 740 -417 814 -843 37 -207 3 -424 -97 -627
-109 -221 -321 -412 -556 -500 -125 -47 -223 -64 -359 -64 -392 1 -737 211
-916 558 -153 296 -154 629 -5 926 54 108 89 157 181 253 246 256 596 367 938
297z"/>
<path d="M2524 3338 c-28 -13 -44 -49 -44 -99 0 -29 -5 -41 -17 -45 -141 -43
-243 -165 -258 -307 -13 -119 39 -249 127 -318 52 -42 143 -78 194 -79 65 0
136 -26 171 -62 62 -64 78 -140 44 -214 -23 -50 -53 -81 -106 -105 -55 -26
-102 -24 -163 7 -62 31 -99 85 -111 164 -10 60 -25 79 -72 86 -26 4 -41 0 -63
-17 -27 -22 -28 -25 -24 -93 6 -90 44 -170 110 -232 48 -45 117 -83 151 -84
14 0 17 -9 17 -55 0 -69 22 -95 79 -95 53 0 81 34 81 99 l0 46 48 17 c194 69
286 307 191 497 -44 88 -119 150 -224 187 -11 3 -47 9 -80 11 -111 8 -181 60
-206 154 -39 145 99 277 245 235 80 -24 146 -106 146 -184 0 -16 9 -41 21 -56
27 -34 88 -37 120 -5 19 19 21 30 17 90 -10 130 -89 241 -212 295 l-66 28 0
52 c0 45 -4 56 -26 73 -29 23 -57 26 -90 9z"/>
<path d="M571 2624 c-57 -29 -102 -81 -122 -142 -27 -81 15 -362 87 -577 152
-462 444 -844 852 -1118 180 -121 467 -244 687 -295 307 -72 704 -69 1001 7
205 52 439 151 612 259 46 29 87 52 91 52 4 0 18 -12 32 -26 13 -14 44 -38 69
-52 39 -24 56 -27 131 -27 78 0 90 3 134 30 27 17 62 48 77 70 31 44 255 680
265 750 13 100 -59 225 -155 267 -87 39 -132 31 -510 -90 -353 -113 -386 -128
-435 -195 -68 -92 -61 -253 14 -334 l21 -21 -84 -45 c-170 -93 -380 -161 -575
-187 -131 -18 -400 -8 -528 20 -569 122 -1022 520 -1214 1064 -32 91 -81 310
-81 363 0 54 -30 133 -66 173 -76 84 -199 106 -303 54z m174 -168 c13 -13 26
-39 29 -57 27 -184 39 -248 61 -324 122 -422 376 -770 734 -1006 536 -355
1215 -396 1792 -109 111 55 202 111 242 148 41 39 38 88 -9 133 -53 50 -94
109 -94 135 0 36 21 74 49 89 47 24 654 215 683 215 42 0 88 -48 88 -92 0 -19
-50 -178 -111 -353 -121 -352 -131 -370 -198 -370 -36 0 -47 8 -114 73 -58 55
-81 72 -103 72 -19 0 -69 -27 -144 -76 -547 -361 -1211 -432 -1814 -193 -673
266 -1151 895 -1231 1616 -7 60 -6 64 23 93 38 38 83 40 117 6z"/>
</g>
</svg>
