<?xml version="1.0" standalone="no"?>
<!DOCTYPE svg PUBLIC "-//W3C//DTD SVG 20010904//EN"
 "http://www.w3.org/TR/2001/REC-SVG-20010904/DTD/svg10.dtd">
<svg version="1.0" xmlns="http://www.w3.org/2000/svg"
 width="512.000000pt" height="512.000000pt" viewBox="0 0 512.000000 512.000000"
 preserveAspectRatio="xMidYMid meet">
<metadata>
Created by potrace 1.16, written by Peter Selinger 2001-2019
</metadata>
<g transform="translate(0.000000,512.000000) scale(0.100000,-0.100000)"
fill="#000000" stroke="none">
<path d="M2350 4688 c-232 -22 -496 -96 -710 -199 -220 -106 -386 -220 -556
-383 -186 -176 -319 -358 -438 -597 -401 -804 -254 -1773 368 -2425 634 -667
1640 -852 2466 -453 220 106 386 220 556 383 186 176 319 358 438 597 375 753
272 1656 -265 2311 -445 543 -1149 833 -1859 766z m305 -863 c212 -23 414
-189 502 -410 26 -65 28 -80 28 -215 0 -140 -1 -148 -32 -225 -59 -146 -183
-280 -319 -345 -91 -44 -167 -61 -274 -61 -107 0 -183 17 -274 61 -136 65
-260 199 -319 345 -31 77 -32 85 -32 225 0 135 2 150 28 215 72 181 205 314
381 380 66 25 185 45 236 39 14 -2 48 -6 75 -9z m66 -1706 c361 -36 702 -186
969 -424 104 -93 134 -139 133 -208 -1 -64 -32 -109 -143 -205 -650 -563
-1590 -563 -2240 0 -111 96 -142 141 -143 205 -1 69 29 115 133 208 353 314
831 471 1291 424z"/>
</g>
</svg>
