<?xml version="1.0" standalone="no"?>
<!DOCTYPE svg PUBLIC "-//W3C//DTD SVG 20010904//EN"
 "http://www.w3.org/TR/2001/REC-SVG-20010904/DTD/svg10.dtd">
<svg version="1.0" xmlns="http://www.w3.org/2000/svg"
 width="512.000000pt" height="512.000000pt" viewBox="0 0 512.000000 512.000000"
 preserveAspectRatio="xMidYMid meet">
<metadata>
Created by potrace 1.16, written by Peter Selinger 2001-2019
</metadata>
<g transform="translate(0.000000,512.000000) scale(0.100000,-0.100000)"
fill="#000000" stroke="none">
<path d="M1155 5003 c-47 -24 -86 -64 -106 -108 -17 -36 -19 -68 -19 -292 l0
-253 -440 0 -441 0 -24 -25 -25 -24 0 -774 c0 -768 0 -775 21 -801 l20 -26
445 0 444 0 0 -964 0 -964 28 -53 c20 -39 41 -62 77 -84 48 -30 50 -30 211
-33 l162 -4 4 -176 c3 -166 5 -180 27 -219 14 -24 42 -55 64 -70 l40 -28 1596
-3 c878 -1 1611 0 1629 3 20 4 52 23 78 47 79 73 74 -55 74 1725 0 1109 -3
1597 -11 1627 -13 54 -59 110 -110 136 -33 18 -59 20 -204 20 l-165 0 0 153 0
152 -528 528 -527 527 -1145 0 c-1023 -1 -1148 -2 -1175 -17z m2227 -551 l3
-448 28 -42 c15 -23 46 -52 70 -64 42 -23 47 -23 480 -26 l437 -3 0 -1535 c0
-1034 -3 -1542 -10 -1555 -28 -51 51 -49 -1610 -49 -1676 0 -1582 -3 -1608 55
-9 19 -12 259 -12 970 l0 945 438 0 c380 0 440 2 460 16 l22 15 0 794 0 794
-22 15 c-20 14 -80 16 -460 16 l-438 0 0 239 0 239 25 31 c14 16 36 32 48 34
12 2 500 5 1084 6 l1062 1 3 -448z m533 -52 l400 -400 -378 0 -378 0 -24 25
-25 24 0 376 c0 206 1 375 3 375 1 0 182 -180 402 -400z m-1965 -875 l0 -695
-860 0 -860 0 0 695 0 695 860 0 860 0 0 -695z m2911 -21 l24 -26 3 -1584 c2
-1763 7 -1643 -65 -1663 -53 -15 -3063 -15 -3115 0 -60 16 -68 42 -68 218 l0
151 1368 2 1367 3 48 28 c26 15 60 47 75 69 l27 42 3 1393 2 1393 153 0 c152
0 154 0 178 -26z"/>
<path d="M2360 4073 c-41 -15 -54 -78 -22 -106 17 -15 60 -17 409 -17 365 0
391 1 406 18 23 25 21 68 -3 92 -19 19 -33 20 -397 19 -208 0 -385 -3 -393 -6z"/>
<path d="M2340 3710 c-25 -25 -26 -72 -2 -93 17 -16 88 -17 819 -17 762 0 801
1 816 18 25 27 22 78 -5 96 -20 14 -114 16 -815 16 -780 0 -793 0 -813 -20z"/>
<path d="M2340 3370 c-25 -25 -26 -72 -2 -93 17 -16 88 -17 819 -17 762 0 801
1 816 18 25 27 22 78 -5 96 -20 14 -114 16 -815 16 -780 0 -793 0 -813 -20z"/>
<path d="M2340 3010 c-27 -27 -26 -75 2 -94 20 -14 114 -16 819 -16 758 0 797
1 812 18 25 27 22 78 -5 96 -20 14 -114 16 -815 16 -780 0 -793 0 -813 -20z"/>
<path d="M3070 2635 c-244 -50 -446 -207 -555 -430 -66 -135 -79 -196 -80
-355 0 -153 14 -219 71 -339 110 -233 311 -395 555 -446 103 -22 268 -19 365
5 292 74 522 309 589 600 24 107 22 272 -5 375 -78 301 -314 528 -612 589 -92
19 -238 19 -328 1z m99 -442 l0 -328 -147 -293 -148 -293 -29 22 c-294 220
-369 606 -178 907 104 164 312 295 491 311 9 1 12 -70 11 -326z m261 296 c214
-62 399 -259 454 -480 27 -110 58 -99 -284 -99 l-300 0 0 305 0 305 33 -6 c17
-3 61 -14 97 -25z m466 -750 c-20 -125 -94 -267 -187 -360 -133 -133 -289
-199 -472 -199 -86 0 -222 23 -232 40 -3 5 56 132 132 284 l137 276 314 0 315
0 -7 -41z"/>
<path d="M1340 2320 c-25 -25 -26 -72 -2 -93 17 -15 60 -17 409 -17 365 0 391
1 406 18 25 27 22 78 -5 96 -19 14 -75 16 -405 16 -370 0 -384 -1 -403 -20z"/>
<path d="M1337 2042 c-22 -24 -21 -65 1 -85 17 -15 60 -17 410 -17 342 0 393
2 406 16 18 18 21 56 6 85 -10 18 -25 19 -409 19 -373 0 -399 -1 -414 -18z"/>
<path d="M1337 1772 c-23 -25 -21 -68 3 -92 19 -19 33 -20 403 -20 427 0 427
0 427 64 0 67 7 66 -427 66 -365 0 -391 -1 -406 -18z"/>
<path d="M1340 1500 c-25 -25 -26 -72 -2 -93 17 -15 60 -17 409 -17 365 0 391
1 406 18 25 27 22 78 -5 96 -19 14 -75 16 -405 16 -370 0 -384 -1 -403 -20z"/>
<path d="M1337 1222 c-22 -24 -21 -65 1 -85 17 -15 60 -17 415 -17 382 0 397
1 407 19 15 29 12 67 -6 85 -13 14 -64 16 -408 16 -368 0 -394 -1 -409 -18z"/>
<path d="M1336 4038 c-12 -16 -16 -47 -16 -109 l0 -87 -131 -4 c-157 -4 -159
-5 -159 -115 l0 -73 -128 0 c-157 0 -162 -3 -162 -103 l0 -67 -129 0 c-104 0
-133 -3 -145 -16 -14 -13 -16 -48 -16 -228 0 -194 2 -214 18 -229 17 -15 75
-17 629 -17 578 0 611 1 626 18 15 17 17 67 17 519 0 472 -1 501 -18 516 -16
15 -45 17 -195 17 -170 0 -176 -1 -191 -22z m274 -513 l0 -405 -80 0 -80 0 0
405 0 405 80 0 80 0 0 -405z m-290 -110 l0 -295 -80 0 -80 0 0 295 0 295 80 0
80 0 0 -295z m-290 -95 l0 -200 -80 0 -80 0 0 200 0 200 80 0 80 0 0 -200z
m-290 -80 l0 -120 -80 0 -80 0 0 120 0 120 80 0 80 0 0 -120z"/>
</g>
</svg>
